{"title":"Hungerford.2014.720p.WEB-DL.XviD.AC3-RARBG","uid":11884378,"size":2441392018,"categoryP":"video","categoryS":"hd___movies","magnet":"?xt=urn:btih:1ddf546c1872c85179c5483d7095c9434e474632&amp;dn=Hungerford.2014.720p.WEB-DL.XviD.AC3-RARBG&amp;tr=udp%3A%2F%2Ftracker.openbittorrent.com%3A80&amp;tr=udp%3A%2F%2Fopen.demonii.com%3A1337&amp;tr=udp%3A%2F%2Ftracker.coppersurfer.tk%3A6969&amp;tr=udp%3A%2F%2Fexodus.desync.com%3A6969","seeders":1,"leechers":1,"uploader":"vickey1992","files":4,"time":1430772538,"description":"Format                                   : AVI\nFormat/Info                              : Audio Video Interleave\nFormat profile                           : OpenDML\nFile size                                : 2.27 GiB\nDuration                                 : 1h 18mn\nOverall bit rate                         : 4 121 Kbps\nMovie name                               : RARBG.COM - Hungerford.2014.720p.WEB-DL.XviD.AC3-RARBG\nWriting library                          : VirtualDub build 35491/release\nComment                                  : RARBG.COM - Hungerford.2014.720p.WEB-DL.XviD.AC3-RARBG\n\nVideo\nID                                       : 0\nFormat                                   : MPEG-4 Visual\nFormat profile                           : Simple@L5\nFormat settings, BVOP                    : No\nFormat settings, QPel                    : No\nFormat settings, GMC                     : No warppoints\nFormat settings, Matrix                  : Default (H.263)\nCodec ID                                 : XVID\nCodec ID/Hint                            : XviD\nDuration                                 : 1h 18mn\nBit rate                                 : 3 725 Kbps\nWidth                                    : 1 280 pixels\nHeight                                   : 718 pixels\nDisplay aspect ratio                     : 16:9\nFrame rate                               : 25.000 fps\nColor space                              : YUV\nChroma subsampling                       : 4:2:0\nBit depth                                : 8 bits\nScan type                                : Progressive\nCompression mode                         : Lossy\nBits/(Pixel*Frame)                       : 0.162\nStream size                              : 2.05 GiB (90%)\nWriting library                          : Lavc56.13.100\n\nAudio\nID                                       : 1\nFormat                                   : AC-3\nFormat/Info                              : Audio Coding 3\nMode extension                           : CM (complete main)\nFormat settings, Endianness              : Big\nCodec ID                                 : 2000\nDuration                                 : 1h 18mn\nBit rate mode                            : Constant\nBit rate                                 : 384 Kbps\nChannel(s)                               : 6 channels\nChannel positions                        : Front: L C R, Side: L R, LFE\nSampling rate                            : 48.0 KHz\nBit depth                                : 16 bits\nCompression mode                         : Lossy\nStream size                              : 217 MiB (9%)\nAlignment                                : Aligned on interleaves\nInterleave, duration                     : 40 ms (1.00 video frame)\nInterleave, preload duration             : 512 ms\nNotes:\nGreetz to all!","torrent":{"xt":"urn:btih:1ddf546c1872c85179c5483d7095c9434e474632","amp;dn":"Hungerford.2014.720p.WEB-DL.XviD.AC3-RARBG","amp;tr":["udp%3A%2F%2Ftracker.openbittorrent.com%3A80","udp%3A%2F%2Fopen.demonii.com%3A1337","udp%3A%2F%2Ftracker.coppersurfer.tk%3A6969","udp%3A%2F%2Fexodus.desync.com%3A6969"],"infoHash":"1ddf546c1872c85179c5483d7095c9434e474632","infoHashBuffer":{"type":"Buffer","data":[29,223,84,108,24,114,200,81,121,197,72,61,112,149,201,67,78,71,70,50]},"announce":[],"urlList":[]}}